<?xml version="1.0"?>
<svg xmlns="http://www.w3.org/2000/svg" height="512px" viewBox="0 0 512 512" width="512px" class=""><g><path d="m256 0c-140.699219 0-256 115.300781-256 256s115.300781 256 256 256 256-115.300781 256-256-115.300781-256-256-256zm0 0" fill="#ff9f00" data-original="#FF9F00" class="" style="fill:#5F7D95" data-old_color="#ff9f00"/><path d="m512 256c0 140.699219-115.300781 256-256 256v-512c140.699219 0 256 115.300781 256 256zm0 0" fill="#ff8700" data-original="#FF8700" class="" style="fill:#374957" data-old_color="#ff8700"/><path d="m256 61c-107.402344 0-195 87.597656-195 195 0 107.398438 87.597656 195 195 195s195-87.601562 195-195c0-107.402344-87.597656-195-195-195zm0 0" fill="#68544f" data-original="#68544F" class="" style="fill:#FB5252" data-old_color="#68544f"/><path d="m451 256c0 107.398438-87.597656 195-195 195v-390c107.402344 0 195 87.597656 195 195zm0 0" fill="#53433f" data-original="#53433F" class="active-path" style="fill:#C12020" data-old_color="#53433f"/><path d="m331 166h-150c-8.402344 0-15 6.597656-15 15v150c0 8.398438 6.597656 15 15 15h150c8.402344 0 15-6.601562 15-15v-150c0-8.402344-6.597656-15-15-15zm0 0" fill="#deecf1" data-original="#DEECF1" class="" style="fill:#DEECF1"/><path d="m346 181v150c0 8.398438-6.597656 15-15 15h-75v-180h75c8.402344 0 15 6.597656 15 15zm0 0" fill="#c6e2e7" data-original="#C6E2E7" class=""/></g> </svg>
