<?xml version="1.0"?>
<svg xmlns="http://www.w3.org/2000/svg" viewBox="1 1 511 511.99997" width="512px" height="512px" class=""><g><path d="m512.5 256c0 141.382812-114.617188 256-256 256-141.386719 0-256-114.617188-256-256 0-141.386719 114.613281-256 256-256 141.382812 0 256 114.613281 256 256zm0 0" fill="#ff4f9b" data-original="#FF4F9B" class="" style="fill:#47A9C2" data-old_color="#ff4f9b"/><path d="m471.210938 34.136719v361.316406c-6.34375 9.738281-13.324219 19.027344-20.898438 27.792969-46.945312 54.355468-116.359375 88.753906-193.816406 88.753906-77.457032 0-146.871094-34.398438-193.820313-88.753906-7.574219-8.765625-14.554687-18.054688-20.894531-27.792969v-361.316406c0-18.847657 15.285156-34.136719 34.136719-34.136719h361.15625c18.851562 0 34.136719 15.289062 34.136719 34.136719zm0 0" fill="#ededed" data-original="#EDEDED" class=""/><path d="m450.316406 116.089844v307.15625c-6.539062 7.574218-13.519531 14.765625-20.898437 21.523437-45.554688 41.753907-106.253907 67.230469-172.917969 67.230469-18.453125 0-36.457031-1.953125-53.800781-5.675781-7.453125-1.578125-14.765625-3.5-21.953125-5.726563-36.574219-11.304687-69.632813-30.59375-97.167969-55.828125-7.375-6.757812-14.355469-13.949219-20.894531-21.523437v-389.109375c0-7.304688 5.933594-13.238281 13.238281-13.238281h279.207031zm0 0" fill="#fff" data-original="#FFF" class=""/><path d="m424.214844 89.988281h-361.53125v-55.851562c0-7.304688 5.933594-13.238281 13.238281-13.238281h279.207031zm0 0" fill="#583377" data-original="#583377" class="active-path" style="fill:#368092" data-old_color="#583377"/><g fill="#fff"><path d="m116.480469 55.441406c0 10.003906-8.109375 18.113282-18.113281 18.113282-10 0-18.109376-8.109376-18.109376-18.113282 0-10 8.109376-18.109375 18.109376-18.109375 10.003906 0 18.113281 8.109375 18.113281 18.109375zm0 0" data-original="#FFF" class=""/><path d="m162.605469 55.441406c0 10.003906-8.109375 18.113282-18.109375 18.113282-10.003906 0-18.113282-8.109376-18.113282-18.113282 0-10 8.109376-18.109375 18.113282-18.109375 10 0 18.109375 8.109375 18.109375 18.109375zm0 0" data-original="#FFF" class=""/><path d="m208.730469 55.441406c0 10.003906-8.105469 18.113282-18.109375 18.113282s-18.113282-8.109376-18.113282-18.113282c0-10 8.109376-18.109375 18.113282-18.109375s18.109375 8.109375 18.109375 18.109375zm0 0" data-original="#FFF" class=""/></g><path d="m450.316406 116.089844h-81.949218c-7.304688 0-13.238282-5.9375-13.238282-13.242188v-81.949218zm0 0" fill="#d6d6d6" data-original="#D6D6D6" class="" style="fill:#D6D6D6"/><path d="m339.496094 217.617188v-24.191407c0-9.101562-7.140625-16.535156-16.226563-17.0625-39.847656-2.316406-81.074219 5.050781-120.773437 22.105469-6.222656 2.671875-10.199219 8.859375-10.199219 15.632812v118.507813c-10.539063-.554687-22.285156 3.945313-31.484375 13.140625-15.191406 15.195312-17.65625 37.363281-5.5 49.515625 12.15625 12.15625 34.324219 9.691406 49.515625-5.5 8.246094-8.242187 12.707031-18.535156 13.152344-28.171875h.070312v-108.363281c0-2.566407 1.613281-4.875 4.039063-5.714844 28.328125-9.800781 57.179687-14.777344 85.53125-14.925781 3.367187-.015625 6.121094 2.683594 6.121094 6.054687v73.921875c-10.542969-.550781-22.285157 3.949219-31.484376 13.144532-15.191406 15.191406-17.65625 37.363281-5.5 49.515624 12.152344 12.15625 34.324219 9.691407 49.515626-5.5 8.246093-8.246093 12.703124-18.535156 13.152343-28.175781h.070313zm0 0" fill="#583377" data-original="#583377" class="active-path" style="fill:#368092" data-old_color="#583377"/></g> </svg>
