<?xml version="1.0"?>
<svg xmlns="http://www.w3.org/2000/svg" xmlns:xlink="http://www.w3.org/1999/xlink" version="1.1" id="Capa_1" x="0px" y="0px" viewBox="0 0 512 512" style="enable-background:new 0 0 512 512;" xml:space="preserve" width="512px" height="512px" class=""><g><circle style="fill:#47A9C2" cx="256" cy="256" r="256" data-original="#00EDBF" class="" data-old_color="#00EDBF"/><path style="fill:#357E90" d="M511.053,277.951L387.415,154.313L124.585,417l91.975,91.975C229.416,510.963,242.587,512,256,512  C389.989,512,499.917,409.058,511.053,277.951z" data-original="#00BD9D" class="" data-old_color="#00BD9D"/><polygon style="fill:#FFFFFF;" points="316.102,83 124.585,83 124.585,417 387.415,417 387.415,154.314 " data-original="#FFFFFF" class=""/><polygon style="fill:#F2EEE6;" points="387.415,154.313 316.102,83 255.762,83 255.762,417 387.415,417 " data-original="#F2EEE6" class=""/><polygon style="fill:#C8BEB9;" points="316.102,154.314 387.415,154.314 316.102,83 " data-original="#C8BEB9"/><path style="fill:#4A5C60" d="M329.75,175.893l-112.835,21.839v0.552v35.543V301.7c-8.952-1.009-18.841,0.36-28.423,4.456  c-24.145,10.322-37.174,33.997-29.101,52.881s34.19,25.825,58.335,15.503c19.075-8.155,31.201-24.643,31.476-40.52h0.016V227.575  l80.531-15.587L329.75,175.893L329.75,175.893z" data-original="#414952" class="active-path" data-old_color="#414952"/><polygon style="fill:#23272B" points="329.75,175.893 255.762,190.213 255.762,226.308 329.75,211.988 " data-original="#23272B" class="" data-old_color="#23272B"/></g> </svg>
