<?xml version="1.0"?>
<svg xmlns="http://www.w3.org/2000/svg" height="512px" viewBox="0 0 512 512" width="512px" class=""><g><path d="m384.019531 34.265625c-37.660156-21.789063-81.382812-34.265625-128.019531-34.265625s-90.359375 12.476562-128.019531 34.265625c-76.503907 44.269531-127.980469 126.988281-127.980469 221.734375s51.476562 177.464844 127.980469 221.734375c37.660156 21.789063 81.382812 34.265625 128.019531 34.265625s90.359375-12.476562 128.019531-34.265625c76.503907-44.269531 127.980469-126.988281 127.980469-221.734375s-51.476562-177.464844-127.980469-221.734375zm-128.019531 306.734375c-46.945312 0-85-38.054688-85-85s38.054688-85 85-85 85 38.054688 85 85-38.054688 85-85 85zm0 0" fill="#fe9" data-original="#FE9" class=""/><path d="m256 171c15.484375 0 29.992188 4.160156 42.496094 11.398438l85.523437-148.132813c-37.660156-21.789063-81.382812-34.265625-128.019531-34.265625s-90.359375 12.476562-128.019531 34.265625l85.523437 148.132813c12.503906-7.238282 27.011719-11.398438 42.496094-11.398438zm0 0" fill="#ff0075" data-original="#FF0075" class="" style="fill:#55BFDA" data-old_color="#ff0075"/><path d="m384.019531 34.265625c-37.660156-21.789063-81.382812-34.265625-128.019531-34.265625v171c15.484375 0 29.992188 4.160156 42.496094 11.398438zm0 0" fill="#dc0069" data-original="#DC0069" class="active-path" style="fill:#55BFDA" data-old_color="#dc0069"/><path d="m171 256h-171c0 94.746094 51.476562 177.464844 127.980469 221.734375l85.523437-148.132813c-25.402344-14.695312-42.503906-42.140624-42.503906-73.601562zm0 0" fill="#006eff" data-original="#006EFF" class="" data-old_color="#006eff" style="fill:#2C6674"/><path d="m341 256c0 31.460938-17.101562 58.90625-42.503906 73.601562l85.523437 148.132813c76.503907-44.269531 127.980469-126.988281 127.980469-221.734375zm0 0" fill="#9c00ae" data-original="#9C00AE" class="" style="fill:#4095AA" data-old_color="#9c00ae"/><path d="m298.496094 329.601562c-12.503906 7.238282-27.011719 11.398438-42.496094 11.398438s-29.992188-4.160156-42.496094-11.398438l-85.523437 148.132813c37.660156 21.789063 81.382812 34.265625 128.019531 34.265625s90.359375-12.476562 128.019531-34.265625zm0 0" fill="#00ca33" data-original="#00CA33" class="" style="fill:#357B8C" data-old_color="#00ca33"/><path d="m298.496094 329.601562c-12.503906 7.238282-27.011719 11.398438-42.496094 11.398438v171c46.636719 0 90.359375-12.476562 128.019531-34.265625zm0 0" fill="#2db124" data-original="#2DB124" class="" style="fill:#357B8C" data-old_color="#2db124"/><path d="m213.503906 182.398438-85.523437-148.132813c-76.503907 44.269531-127.980469 126.988281-127.980469 221.734375h171c0-31.460938 17.101562-58.90625 42.503906-73.601562zm0 0" fill="#ffd500" data-original="#FFD500" class="" style="fill:#58CBE8" data-old_color="#ffd500"/><path d="m384.019531 34.265625-85.523437 148.132813c25.402344 14.695312 42.503906 42.140624 42.503906 73.601562h171c0-94.746094-51.476562-177.464844-127.980469-221.734375zm0 0" fill="#ffa300" data-original="#FFA300" class="" style="fill:#47A9C2" data-old_color="#ffa300"/></g> </svg>
