<?xml version="1.0"?>
<svg xmlns="http://www.w3.org/2000/svg" xmlns:xlink="http://www.w3.org/1999/xlink" version="1.1" id="Capa_1" x="0px" y="0px" viewBox="0 0 512 512" style="enable-background:new 0 0 512 512;" xml:space="preserve" width="512px" height="512px" class=""><g><g>
	<g>
		<g>
			<g>
				<g>
					<g>
						<g>
							<g>
								<g>
									<g>
										<g>
											<g>
												<circle style="fill:#47A9C2" cx="256" cy="256" r="256" data-original="#555A66" class="" data-old_color="#555A66"/>
											</g>
										</g>
									</g>
								</g>
							</g>
						</g>
					</g>
				</g>
			</g>
		</g>
	</g>
	<path style="fill:#398598" d="M509.535,291.525L314.497,96.488h-57.699l-114.583,35.607L96.976,256l36.282,126.704   l129.214,129.214C388.881,508.781,492.528,414.009,509.535,291.525z" data-original="#333940" class="active-path" data-old_color="#333940"/>
	<g>
		<path style="fill:#FFFFFF;" d="M400.688,279C389.618,348.892,328.956,402.5,256,402.5c-80.78,0-146.5-65.72-146.5-146.5    S175.22,109.5,256,109.5h3.068l-26.533,26.54l21.216,21.21l60.746-60.762L253.75,35.75l-21.212,21.215l22.551,22.547    C158.185,80.005,79.5,158.982,79.5,256c0,97.322,79.178,176.5,176.5,176.5c89.528,0,163.696-67.005,175.002-153.5H400.688z" data-original="#FFFFFF" class=""/>
	</g>
	<g>
		<path style="fill:#E9EDF5" d="M400.688,279C389.618,348.892,328.956,402.5,256,402.5c-0.032,0-0.063-0.001-0.095-0.001v30    c0.032,0,0.063,0.001,0.095,0.001c89.528,0,163.696-67.005,175.002-153.5H400.688z" data-original="#E9EDF5" class="" data-old_color="#E9EDF5"/>
		<path style="fill:#E9EDF5" d="M256,109.5h3.068l-3.164,3.165v42.432l58.592-58.608l-58.592-58.583v71.597    C255.937,109.501,255.968,109.5,256,109.5z" data-original="#E9EDF5" class="" data-old_color="#E9EDF5"/>
	</g>
	<path style="fill:#FFFFFF;" d="M324.855,193.396c-23.665,0-52.644,24.875-68.855,40.899c-16.211-16.024-45.19-40.899-68.855-40.899   c-34.52,0-62.604,28.084-62.604,62.604s28.084,62.604,62.604,62.604c23.665,0,52.644-24.875,68.855-40.899   c16.211,16.024,45.19,40.899,68.855,40.899c34.52,0,62.604-28.084,62.604-62.604S359.375,193.396,324.855,193.396z    M187.145,288.604c-17.978,0-32.604-14.626-32.604-32.604s14.626-32.604,32.604-32.604c5.234,0,16.995,5.254,34.304,20.001   c5.18,4.413,9.915,8.868,13.749,12.642C219.039,271.903,197.641,288.604,187.145,288.604z M324.855,288.604   c-5.234,0-16.995-5.254-34.304-20.001c-5.18-4.413-9.915-8.868-13.749-12.642c16.158-15.863,37.557-32.563,48.053-32.563   c17.978,0,32.604,14.626,32.604,32.604S342.833,288.604,324.855,288.604z" data-original="#FFFFFF" class=""/>
	<path style="fill:#E9EDF5" d="M256,277.705c16.211,16.024,45.19,40.899,68.855,40.899c34.52,0,62.604-28.084,62.604-62.604   s-28.084-62.604-62.604-62.604c-23.665,0-52.644,24.875-68.855,40.899V277.705z M324.855,288.604   c-5.234,0-16.995-5.254-34.304-20.001c-5.18-4.413-9.915-8.868-13.749-12.642c16.158-15.863,37.557-32.563,48.053-32.563   c17.978,0,32.604,14.626,32.604,32.604S342.833,288.604,324.855,288.604z" data-original="#E9EDF5" class="" data-old_color="#E9EDF5"/>
</g></g> </svg>
