<?xml version="1.0"?>
<svg xmlns="http://www.w3.org/2000/svg" id="Capa_1" enable-background="new 0 0 512 512" height="512px" viewBox="0 0 512 512" width="512px" class=""><g><g><g><g><g><g><g><g><g><g><circle cx="256" cy="256" fill="#64e1dc" r="256" data-original="#64E1DC" class="" style="fill:#47A9C2" data-old_color="#64e1dc"/></g></g></g></g></g></g></g></g><path d="m511.999 256.581-144.568-144.568-143.238-31.664-72.289 73.494-73.168 215.352 140.131 140.131c12.123 1.762 24.522 2.674 37.133 2.674 141.191 0 255.685-114.301 255.999-255.419z" fill="#00c8c8" data-original="#00C8C8" class="" style="fill:#378092" data-old_color="#00c8c8"/><g><path d="m404.062 316.794h-37v-107.391c0-61.239-49.822-111.061-111.062-111.061s-111.062 49.822-111.062 111.061v107.391h-37v-107.391c0-81.641 66.42-148.061 148.062-148.061s148.062 66.42 148.062 148.061z" fill="#707789" data-original="#707789" class="" style="fill:#FFFFFF" data-old_color="#707789"/></g><g><path d="m256.121 61.344v37c61.184.065 110.941 49.861 110.941 111.06v107.391h37v-107.392c0-81.601-66.355-147.994-147.941-148.059z" fill="#555a66" data-original="#555A66" class="" style="fill:#000000" data-old_color="#555a66"/></g><g><path d="m111.457 375.47h-17.74c-11.617 0-21.034-9.417-21.034-21.034v-75.283c0-11.617 9.417-21.034 21.034-21.034h17.74c11.617 0 21.034 9.417 21.034 21.034v75.283c.001 11.616-9.417 21.034-21.034 21.034z" fill="#7584f2" data-original="#7584F2" class="" style="fill:#FFFFFF" data-old_color="#7584f2"/></g><g><path d="m166.629 391.327h-48.188c-15.13 0-27.395-12.265-27.395-27.395v-94.276c0-15.13 12.265-27.395 27.395-27.395h48.188z" fill="#555a66" data-original="#555A66" class="" style="fill:#000000" data-old_color="#555a66"/></g><g><path d="m400.543 375.47h17.74c11.617 0 21.034-9.417 21.034-21.034v-75.283c0-11.617-9.417-21.034-21.034-21.034h-17.74c-11.617 0-21.034 9.417-21.034 21.034v75.283c-.001 11.616 9.417 21.034 21.034 21.034z" fill="#606aea" data-original="#606AEA" class="active-path" style="fill:#000000" data-old_color="#606aea"/></g><g><path d="m345.371 391.327h48.188c15.13 0 27.395-12.265 27.395-27.395v-94.276c0-15.13-12.265-27.395-27.395-27.395h-48.188z" fill="#333940" data-original="#333940" class="" style="fill:#FFFFFF" data-old_color="#333940"/></g></g></g> </svg>
