<?xml version="1.0"?>
<svg xmlns="http://www.w3.org/2000/svg" xmlns:xlink="http://www.w3.org/1999/xlink" version="1.1" id="Capa_1" x="0px" y="0px" viewBox="0 0 512 512" style="enable-background:new 0 0 512 512;" xml:space="preserve" width="512px" height="512px" class=""><g><path style="fill:#47A9C2" d="M512,256c0,5.59-0.178,11.128-0.533,16.624c-1.902,29.633-8.84,57.898-19.968,83.937  c-10.543,24.66-24.848,47.323-42.193,67.271c-4.399,5.057-8.986,9.937-13.761,14.639c-15.6,15.36-33.176,28.735-52.297,39.717  c-15.726,9.028-32.496,16.426-50.092,21.974c-15.214,4.807-31.044,8.223-47.323,10.115C276.052,511.415,266.094,512,256,512  c-4.43,0-8.829-0.115-13.208-0.334c-10.961-0.554-21.744-1.808-32.298-3.699c-65.912-11.828-123.068-48.87-161.113-100.801  c-12.016-16.394-22.12-34.262-29.999-53.29c-7.868-18.986-13.511-39.131-16.614-60.103c-1.17-7.899-1.975-15.924-2.403-24.043  C0.125,265.185,0,260.608,0,256c0-12.821,0.94-25.422,2.769-37.731c2.393-16.227,6.311-31.953,11.598-47.031  c9.279-26.446,22.768-50.907,39.664-72.568C94.939,46.237,155.805,10.146,225.217,1.839h0.01C235.322,0.627,245.582,0,256,0  c43.353,0,84.177,10.773,119.954,29.79C456.892,72.788,512,157.957,512,256z" data-original="#F4A14E" class="" data-old_color="#F4A14E"/><g>
	<path style="fill:#2E6B7A" d="M326.04,335.611l-15.266-1.003c-8.568-0.564-15.924-6.332-18.463-14.545   c-2.894-9.383-6.646-18.401-11.159-26.937c-4.023-7.617-2.936-16.917,2.738-23.385l10.094-11.525   c7.21-8.234,6.802-20.647-0.93-28.379l-14.305-14.305c-7.743-7.743-20.156-8.15-28.39-0.93l-11.504,10.083   c-6.478,5.684-15.788,6.771-23.395,2.748c-8.547-4.524-17.565-8.276-26.958-11.18c-8.202-2.539-13.97-9.895-14.535-18.453   l-1.014-15.266c-0.711-10.919-9.78-19.404-20.72-19.404h-20.208c-10.951,0-20.01,8.495-20.731,19.414l-0.094,1.39l-0.92,13.866   c-0.564,8.558-6.332,15.914-14.535,18.453c-9.383,2.894-18.401,6.656-26.937,11.17c-7.617,4.033-16.917,2.947-23.395-2.738   l-11.525-10.094c-8.223-7.21-20.647-6.802-28.379,0.94l-2.738,2.738C0.94,230.578,0,243.179,0,256c0,4.608,0.125,9.185,0.366,13.73   c3.396,3.866,5.13,8.746,5.13,13.667c0,3.344-0.805,6.719-2.435,9.812c-0.094,0.188-0.199,0.376-0.293,0.564   c4.577,30.971,14.702,60.134,29.33,86.444c21.995,39.56,54.168,72.683,92.975,95.807c25.872,15.433,54.7,26.425,85.42,31.943   c1.703-0.815,3.375-1.672,5.047-2.55c7.576-4.002,16.854-2.863,23.301,2.79l3.95,3.459C247.171,511.885,251.57,512,256,512   c10.094,0,20.052-0.585,29.832-1.724l7.21-7.21c7.743-7.732,8.15-20.156,0.94-28.379l-10.094-11.525   c-5.674-6.468-6.76-15.768-2.738-23.385c4.514-8.537,8.265-17.554,11.159-26.948c2.539-8.202,9.895-13.97,18.463-14.535   l15.276-1.014c10.919-0.711,19.404-9.78,19.404-20.72v-20.219C345.454,345.391,336.959,336.332,326.04,335.611z M73.634,366.446   c0-37.815,30.668-68.483,68.493-68.483s68.493,30.668,68.493,68.483c0,37.836-30.668,68.504-68.493,68.504   S73.634,404.281,73.634,366.446z" data-original="#E8DBC4" class="" data-old_color="#E8DBC4"/>
	<path style="fill:#2E6B7A" d="M506.326,153.339l-18.38-8.589c-2.623-1.223-4.127-3.992-3.803-6.865   c1.014-8.934,0.784-17.847-0.585-26.52c-0.449-2.853,0.94-5.695,3.511-7.032l18.004-9.373c3.124-1.63,4.451-5.402,3.03-8.62   l-10.021-22.81c-1.421-3.218-5.099-4.796-8.401-3.594l-19.08,6.938c-2.727,0.982-5.747,0.094-7.555-2.184   c-5.465-6.865-11.88-13.061-19.143-18.359c-2.341-1.703-3.354-4.681-2.487-7.44l6.092-19.341c1.066-3.365-0.669-6.969-3.95-8.244   l-23.197-9.038c-3.281-1.275-6.99,0.219-8.485,3.406l-2.936,6.29l-5.653,12.079c-1.223,2.623-3.992,4.127-6.865,3.803   c-8.934-1.014-17.836-0.784-26.509,0.585c-2.863,0.449-5.705-0.93-7.043-3.5l-9.373-18.014c-1.62-3.124-5.392-4.451-8.62-3.03   l-16.551,7.283l-6.249,2.738c-3.229,1.421-4.796,5.099-3.594,8.401l6.928,19.09c0.993,2.717,0.094,5.747-2.184,7.555   c-6.865,5.454-13.061,11.87-18.359,19.132c-1.703,2.341-4.681,3.354-7.44,2.487l-19.341-6.102c-3.354-1.055-6.959,0.669-8.234,3.95   l-9.038,23.207c-1.275,3.281,0.209,6.99,3.396,8.485l18.38,8.589c2.612,1.223,4.117,3.992,3.793,6.865   c-1.003,8.934-0.784,17.847,0.585,26.52c0.46,2.863-0.93,5.695-3.5,7.032l-18.004,9.373c-3.124,1.62-4.451,5.392-3.041,8.62   l10.021,22.81c1.421,3.218,5.089,4.786,8.401,3.594l19.09-6.928c2.727-0.993,5.747-0.094,7.555,2.173   c5.465,6.865,11.87,13.051,19.132,18.348c2.341,1.703,3.365,4.692,2.497,7.45l-6.102,19.352c-1.066,3.354,0.669,6.959,3.95,8.234   l23.197,9.038c3.281,1.275,6.99-0.209,8.485-3.406l8.589-18.38c1.223-2.623,3.992-4.127,6.865-3.803   c8.934,1.014,17.847,0.784,26.52-0.575c2.863-0.449,5.695,0.94,7.032,3.5l9.373,18.004c1.63,3.124,5.402,4.451,8.62,3.041   l22.81-10.031c3.218-1.411,4.796-5.089,3.594-8.401l-6.928-19.069c-0.993-2.727-0.094-5.747,2.173-7.555   c6.865-5.465,13.061-11.88,18.359-19.153c1.703-2.33,4.681-3.354,7.44-2.487l19.352,6.102c3.365,1.066,6.959-0.669,8.244-3.95   l9.028-23.197C511.007,158.532,509.513,154.823,506.326,153.339z M424.803,144.541c-9.038,20.125-32.204,30.302-53.133,23.353   c-24.451-8.108-36.477-35.474-25.934-58.974c9.028-20.125,32.214-30.312,53.144-23.364   C423.33,93.686,435.346,121.051,424.803,144.541z" data-original="#E8DBC4" class="" data-old_color="#E8DBC4"/>
	<path style="fill:#2E6B7A" d="M490.043,270.639c-6.535-0.606-12.419,3.962-13.453,10.443l-0.241,1.511l-1.464,9.156   c-0.813,5.083-4.661,9.178-9.705,10.213c-6.407,1.313-12.608,3.248-18.529,5.746c-4.76,2.008-10.267,0.822-13.821-2.928   l-7.447-7.857c-4.516-4.765-11.955-5.207-17.005-1.011l-9.749,8.1l-1.087,0.901c-5.055,4.19-5.991,11.584-2.14,16.901l6.348,8.765   c3.029,4.182,3.182,9.811,0.334,14.119c-3.544,5.361-6.588,11.103-9.06,17.161c-1.946,4.767-6.681,7.796-11.828,7.657l-10.8-0.29   c-6.561-0.177-12.134,4.768-12.74,11.303l-1.302,14.03c-0.606,6.535,3.96,12.419,10.44,13.454l10.673,1.705   c5.082,0.812,9.177,4.659,10.213,9.7c1.317,6.41,3.252,12.615,5.749,18.542c2.005,4.759,0.817,10.264-2.932,13.817l-7.86,7.446   c-4.765,4.514-5.21,11.951-1.018,17.002l1.629,1.963c24.973-14.336,47.292-32.758,66.058-54.356   c-5.465-8.035-8.286-17.962-7.314-28.4c2.215-23.834,23.333-41.367,47.177-39.152c0.784,0.073,1.557,0.167,2.33,0.282   c11.128-26.039,18.066-54.303,19.968-83.937L490.043,270.639z" data-original="#E8DBC4" class="" data-old_color="#E8DBC4"/>
</g><g>
	<path style="fill:#EAEAEA" d="M385.275,44.199c-45.578,0-82.526,36.948-82.526,82.526s36.948,82.526,82.526,82.526   s82.526-36.948,82.526-82.526S430.853,44.199,385.275,44.199z M424.803,144.541c-9.038,20.125-32.204,30.302-53.133,23.353   c-24.451-8.108-36.477-35.474-25.934-58.974c9.028-20.125,32.214-30.312,53.144-23.364   C423.33,93.686,435.346,121.051,424.803,144.541z" data-original="#D6C8B0" class="active-path" data-old_color="#D6C8B0"/>
	<path style="fill:#EAEAEA" d="M142.127,255.582c-61.231,0-110.874,49.643-110.874,110.853c0,4.671,0.293,9.268,0.846,13.782   c21.995,39.56,54.168,72.683,92.975,95.807c5.559,0.857,11.254,1.306,17.053,1.306c61.231,0,110.874-49.643,110.874-110.895   C253.001,305.225,203.358,255.582,142.127,255.582z M142.127,434.949c-37.825,0-68.493-30.668-68.493-68.504   c0-37.815,30.668-68.483,68.493-68.483s68.493,30.668,68.493,68.483C210.62,404.281,179.952,434.949,142.127,434.949z" data-original="#D6C8B0" class="active-path" data-old_color="#D6C8B0"/>
</g></g> </svg>
