<?xml version="1.0"?>
<svg xmlns="http://www.w3.org/2000/svg" height="512px" viewBox="0 0 512 512" width="512px" class=""><g><path d="m512 256c0 63.4375-23.070312 121.492188-61.292969 166.210938-4.746093 5.550781-9.71875 10.898437-14.910156 16.019531-2.308594 2.277343-4.660156 4.515625-7.066406 6.71875-35.765625 32.714843-80.851563 55.410156-130.820313 63.632812-9.527344 1.570313-19.234375 2.613281-29.089844 3.09375-4.242187.21875-8.527343.324219-12.820312.324219-1.964844 0-3.917969-.019531-5.871094-.074219-67.753906-1.515625-128.992187-29.351562-173.925781-73.695312-5.191406-5.128907-10.175781-10.480469-14.910156-16.027344-38.222657-44.722656-61.292969-102.765625-61.292969-166.203125 0-141.386719 114.613281-256 256-256s256 114.613281 256 256zm0 0" fill="#304e87" data-original="#304E87" class="" style="fill:#47A9C2" data-old_color="#304e87"/><path d="m414.214844 174.78125h-316.433594c-42.417969 0-76.800781-34.386719-76.800781-76.800781 0-42.414063 34.382812-76.800781 76.800781-76.800781h316.433594c42.414062 0 76.796875 34.386718 76.796875 76.800781 0 42.414062-34.382813 76.800781-76.796875 76.800781zm0 0" fill="#fcf8f2" data-original="#FCF8F2" class="" style="fill:#FCF8F2"/><path d="m97.78125 153.882812c-30.824219 0-55.902344-25.078124-55.902344-55.902343s25.078125-55.902344 55.902344-55.902344h316.433594c30.824218 0 55.902344 25.078125 55.902344 55.902344s-25.078126 55.902343-55.902344 55.902343zm0 0" fill="#e5e1dc" data-original="#E5E1DC" class=""/><path d="m301.449219 153.882812c-30.824219 0-55.902344-25.078124-55.902344-55.902343s25.078125-55.902344 55.902344-55.902344h93.957031c30.824219 0 55.902344 25.078125 55.902344 55.902344s-25.078125 55.902343-55.902344 55.902343zm0 0" fill="#d1cfcd" data-original="#D1CFCD" class="" style="fill:#D1CFCD"/><path d="m470.117188 97.980469c0 30.824219-25.078126 55.902343-55.902344 55.902343h-93.957032c-30.824218 0-55.902343-25.078124-55.902343-55.902343s25.078125-55.902344 55.902343-55.902344h93.957032c30.824218 0 55.902344 25.078125 55.902344 55.902344zm0 0" fill="#17a388" data-original="#17A388" class="active-path" style="fill:#B02632" data-old_color="#17a388"/><path d="m470.117188 97.980469c0 30.824219-25.078126 55.902343-55.902344 55.902343h-63.65625c-30.824219 0-55.902344-25.078124-55.902344-55.902343s25.078125-55.902344 55.902344-55.902344h63.65625c30.824218 0 55.902344 25.078125 55.902344 55.902344zm0 0" fill="#3fc37c" data-original="#3FC37C" class="" style="fill:#AE4D55" data-old_color="#3fc37c"/><path d="m414.214844 370.6875h-316.433594c-42.417969 0-76.800781-34.382812-76.800781-76.796875 0-42.417969 34.382812-76.800781 76.800781-76.800781h316.433594c42.414062 0 76.796875 34.382812 76.796875 76.800781 0 42.414063-34.382813 76.796875-76.796875 76.796875zm0 0" fill="#fcf8f2" data-original="#FCF8F2" class="" style="fill:#FCF8F2"/><path d="m97.78125 349.792969c-30.824219 0-55.902344-25.078125-55.902344-55.902344s25.078125-55.902344 55.902344-55.902344h316.433594c30.824218 0 55.902344 25.078125 55.902344 55.902344s-25.078126 55.902344-55.902344 55.902344zm0 0" fill="#e5e1dc" data-original="#E5E1DC" class=""/><path d="m247.640625 293.890625c0 30.824219-25.078125 55.902344-55.902344 55.902344h-93.957031c-30.824219 0-55.902344-25.078125-55.902344-55.902344s25.078125-55.902344 55.902344-55.902344h93.957031c30.824219 0 55.902344 25.078125 55.902344 55.902344zm0 0" fill="#dd104f" data-original="#DD104F" class="" style="fill:#2C6978" data-old_color="#dd104f"/><path d="m247.640625 293.890625c0 30.824219-25.078125 55.902344-55.902344 55.902344h-63.65625c-30.824219 0-55.902343-25.078125-55.902343-55.902344s25.078124-55.902344 55.902343-55.902344h63.65625c30.824219 0 55.902344 25.078125 55.902344 55.902344zm0 0" fill="#fb3a4a" data-original="#FB3A4A" class="" style="fill:#47A9C2" data-old_color="#fb3a4a"/><path d="m450.707031 422.210938c-4.746093 5.550781-9.71875 10.898437-14.910156 16.019531-46.226563 45.621093-109.714844 73.769531-179.796875 73.769531s-133.570312-28.148438-179.796875-73.769531c-5.191406-5.128907-10.175781-10.480469-14.910156-16.027344 10.847656-5.875 23.28125-9.207031 36.488281-9.207031h316.425781c13.21875 0 25.652344 3.332031 36.5 9.214844zm0 0" fill="#fcf8f2" data-original="#FCF8F2" class="" style="fill:#FCF8F2"/><path d="m435.796875 438.230469c-46.226563 45.621093-109.714844 73.769531-179.796875 73.769531s-133.570312-28.148438-179.796875-73.769531c6.636719-2.789063 13.929687-4.335938 21.578125-4.335938h316.425781c7.648438 0 14.941407 1.546875 21.589844 4.335938zm0 0" fill="#e5e1dc" data-original="#E5E1DC" class=""/><path d="m428.730469 444.949219c-35.765625 32.714843-80.851563 55.410156-130.820313 63.632812-9.527344 1.570313-19.234375 2.613281-29.089844 3.09375-4.242187.21875-8.527343.324219-12.820312.324219-1.964844 0-3.917969-.019531-5.871094-.074219-2.949218-6.78125-4.578125-14.273437-4.578125-22.128906 0-30.824219 25.078125-55.902344 55.902344-55.902344h93.945313c12.476562 0 24.023437 4.105469 33.332031 11.054688zm0 0" fill="#d1cfcd" data-original="#D1CFCD" class="" style="fill:#D1CFCD"/><path d="m435.796875 438.230469c-36.8125 36.332031-84.574219 61.574219-137.886719 70.351562-9.527344 1.570313-19.234375 2.613281-29.089844 3.09375-2.871093-6.71875-4.460937-14.117187-4.460937-21.878906 0-30.824219 25.078125-55.902344 55.902344-55.902344h93.957031c7.648438 0 14.941406 1.546875 21.578125 4.335938zm0 0" fill="#17a388" data-original="#17A388" class="active-path" style="fill:#B02632" data-old_color="#17a388"/><path d="m435.796875 438.230469c-36.8125 36.332031-84.574219 61.574219-137.886719 70.351562-2.097656-5.871093-3.25-12.191406-3.25-18.785156 0-30.824219 25.078125-55.902344 55.902344-55.902344h63.65625c7.648438 0 14.941406 1.546875 21.578125 4.335938zm0 0" fill="#3fc37c" data-original="#3FC37C" class="" style="fill:#AE4D55" data-old_color="#3fc37c"/></g> </svg>
