<?xml version="1.0"?>
<svg xmlns="http://www.w3.org/2000/svg" height="512px" viewBox="0 0 512 512" width="512px" class=""><g><path d="m512 256c0 141.386719-114.613281 256-256 256s-256-114.613281-256-256 114.613281-256 256-256 256 114.613281 256 256zm0 0" fill="#0c99e6" data-original="#0C99E6" class="" style="fill:#47A9C2" data-old_color="#0c99e6"/><path d="m497.421875 53.085938h-321.753906v-29.160157h321.753906c8.050781 0 14.578125 6.527344 14.578125 14.582031 0 8.050782-6.527344 14.578126-14.578125 14.578126zm0 0" fill="#3e4a68" data-original="#3E4A68"/><path d="m325.636719 256c0 82.824219-67.144531 149.96875-149.96875 149.96875s-149.96875-67.144531-149.96875-149.96875 67.144531-149.96875 149.96875-149.96875 149.96875 67.144531 149.96875 149.96875zm0 0" fill="#303a59" data-original="#303A59"/><path d="m55.699219 256c0-77.761719 59.1875-141.695312 134.96875-149.222656-4.933594-.492188-9.9375-.746094-15-.746094-82.824219 0-149.96875 67.144531-149.96875 149.96875s67.144531 149.96875 149.96875 149.96875c5.0625 0 10.066406-.253906 15-.746094-75.78125-7.527344-134.96875-71.460937-134.96875-149.222656zm0 0" fill="#232d47" data-original="#232D47" class=""/><path d="m175.667969 23.925781c-11.070313 0-21.957031.792969-32.613281 2.292969-69.972657 34.460938-121.925782 99.921875-137.90625 178.46875 7.402343-3.535156 15.6875-5.519531 24.4375-5.519531 31.347656 0 56.761718 25.414062 56.761718 56.761719 0 31.347656-25.414062 56.757812-56.761718 56.757812-8.761719 0-17.058594-1.988281-24.46875-5.53125 15.945312 78.617188 67.917968 144.140625 137.9375 178.625 10.65625 1.496094 21.542968 2.289062 32.613281 2.289062 128.171875 0 232.074219-103.902343 232.074219-232.070312 0-128.171875-103.902344-232.074219-232.074219-232.074219zm0 434.847657c-31.347657 0-56.761719-25.414063-56.761719-56.761719 0-31.347657 25.414062-56.757813 56.761719-56.757813 31.347656 0 56.761719 25.410156 56.761719 56.757813 0 31.347656-25.414063 56.761719-56.761719 56.761719zm0-292.164063c-31.347657 0-56.761719-25.414063-56.761719-56.761719s25.414062-56.761718 56.761719-56.761718c31.347656 0 56.761719 25.414062 56.761719 56.761718s-25.414063 56.761719-56.761719 56.761719zm202.84375 89.320313c0 31.347656-25.414063 56.757812-56.761719 56.757812s-56.761719-25.410156-56.761719-56.757812c0-31.347657 25.414063-56.761719 56.761719-56.761719s56.761719 25.414062 56.761719 56.761719zm0 0" fill="#ebf0f3" data-original="#EBF0F3" class=""/><g fill="#c7d9ff"><path d="m72.671875 219c6.097656-42.117188 22.445313-80.90625 46.4375-113.773438 2.1875-27.132812 23.445313-48.878906 50.367187-51.796874 13.199219-10.210938 27.421876-19.160157 42.488282-26.671876-11.828125-1.855468-23.949219-2.832031-36.296875-2.832031-11.074219 0-21.957031.792969-32.617188 2.292969-69.96875 34.460938-121.921875 99.921875-137.902343 178.46875 7.402343-3.535156 15.6875-5.519531 24.4375-5.519531 17.242187 0 32.675781 7.699219 43.085937 19.832031zm0 0" data-original="#C7D9FF" class="active-path" style="fill:#35798A" data-old_color="#C7D9FF"/><path d="m169.257812 458.402344c-26.765624-3.011719-47.886718-24.625-50.136718-51.613282-24.019532-32.898437-40.382813-71.742187-46.46875-113.910156-10.40625 12.121094-25.835938 19.8125-43.066406 19.8125-8.761719 0-17.058594-1.988281-24.46875-5.535156 15.945312 78.617188 67.917968 144.144531 137.933593 178.625 10.660157 1.5 21.546875 2.292969 32.617188 2.292969 12.347656 0 24.46875-.976563 36.296875-2.832031-15.152344-7.554688-29.449219-16.558594-42.707032-26.839844zm0 0" data-original="#C7D9FF" class="active-path" style="fill:#35798A" data-old_color="#C7D9FF"/></g></g> </svg>
