<?xml version="1.0"?>
<svg xmlns="http://www.w3.org/2000/svg" height="512px" viewBox="0 0 512 512" width="512px" class=""><g transform="matrix(1 -3.67394e-16 3.67394e-16 1 -1.13687e-13 1.75755e-14)"><path d="m512 256c0 68.378906-26.628906 132.671875-74.980469 181.019531-48.347656 48.351563-112.640625 74.980469-181.019531 74.980469s-132.671875-26.628906-181.019531-74.980469c-48.351563-48.347656-74.980469-112.640625-74.980469-181.019531s26.628906-132.671875 74.980469-181.019531c48.347656-48.351563 112.640625-74.980469 181.019531-74.980469s132.671875 26.628906 181.019531 74.980469c48.351563 48.347656 74.980469 112.640625 74.980469 181.019531zm0 0" fill="#ff738e" data-original="#FF738E" class="" style="fill:#47A9C2" data-old_color="#ff738e"/><path d="m512 256c0-2.394531-.039062-4.785156-.105469-7.171875l-90.15625-90.152344-28.296875 19.003907-37-37.988282-266.179687 232.617188 138.21875 138.222656c9.082031.964844 18.261719 1.46875 27.519531 1.46875 68.378906 0 132.671875-26.628906 181.019531-74.980469 48.351563-48.347656 74.980469-112.640625 74.980469-181.019531zm0 0" fill="#ff0435" data-original="#FF0435" class="" style="fill:#337D90" data-old_color="#ff0435"/><path d="m421.738281 158.671875v194.65625l-65.296875-43.859375v62.839844h-266.179687v-232.617188h266.179687v62.835938zm0 0" fill="#00459f" data-original="#00459F" class="" style="fill:#FFFFFF" data-old_color="#00459f"/><path d="m421.738281 256v97.328125l-65.296875-43.859375v62.839844h-266.179687v-116.308594zm0 0" fill="#002d6b" data-original="#002D6B" class="active-path" style="fill:#E3E9ED" data-old_color="#002d6b"/></g> </svg>
