<?xml version="1.0"?>
<svg xmlns="http://www.w3.org/2000/svg" viewBox="1 1 511.99998 511.99998" width="512px" height="512px" class=""><g><path d="m512 256c0 141.386719-114.613281 256-256 256s-256-114.613281-256-256 114.613281-256 256-256 256 114.613281 256 256zm0 0" fill="#515a6e" data-original="#515A6E" class="active-path" style="fill:#47A9C2" data-old_color="#515a6e"/><path d="m408.902344 396.996094-24.554688 80.550781c-8.683594 5.046875-17.699218 9.605469-27 13.617187-5.976562 2.582032-12.078125 4.929688-18.285156 7.0625-26.039062 8.925782-53.980469 13.773438-83.058594 13.773438-24.316406 0-47.835937-3.386719-70.113281-9.730469-.585937-.15625-1.160156-.324219-1.734375-.488281-3.78125-1.109375-7.523438-2.289062-11.234375-3.566406-6.207031-2.128906-12.308594-4.492188-18.285156-7.0625-9.296875-4.023438-18.316407-8.578125-27.007813-13.636719l-24.546875-80.519531 152.910157-72.066406 18.515624 8.726562zm0 0" fill="#f2f2f2" data-original="#F2F2F2" class=""/><path d="m184.078125 183.421875c0 20.085937-16.28125 36.371094-36.371094 36.371094-20.085937 0-36.367187-16.285157-36.367187-36.371094s16.28125-36.371094 36.367187-36.371094c20.089844 0 36.371094 16.285157 36.371094 36.371094zm0 0" fill="#e6e6e6" data-original="#E6E6E6" class=""/><path d="m255.988281 381.96875c-23.289062 0-42.167969-18.878906-42.167969-42.167969v-48.601562h84.335938v48.601562c0 23.289063-18.878906 42.167969-42.167969 42.167969zm0 0" fill="#e6e6e6" data-original="#E6E6E6" class=""/><path d="m400.027344 183.421875c0 20.085937-16.28125 36.371094-36.367188 36.371094-20.085937 0-36.371094-16.285157-36.371094-36.371094s16.285157-36.371094 36.371094-36.371094c20.085938 0 36.367188 16.285157 36.367188 36.371094zm0 0" fill="#e6e6e6" data-original="#E6E6E6" class=""/><path d="m255.988281 315.320312c-59.800781 0-108.28125-48.476562-108.28125-108.28125v-138.996093h216.558594v138.996093c0 59.804688-48.476563 108.28125-108.277344 108.28125zm0 0" fill="#f2f2f2" data-original="#F2F2F2" class=""/><path d="m271.480469 314.214844c-5.0625.730468-10.222657 1.101562-15.488281 1.101562-59.804688 0-108.285157-48.46875-108.285157-108.273437v-138.996094h30.984375v138.996094c0 54.539062 40.328125 99.660156 92.789063 107.171875zm0 0" fill="#e6e6e6" data-original="#E6E6E6" class=""/><path d="m170.585938 91.542969-33.515626 16.867187v76.746094c18.511719 0 33.515626-15.003906 33.515626-33.511719zm0 0" fill="#b3b3b3" data-original="#B3B3B3" class=""/><path d="m341.390625 32.503906h33.515625v152.652344c-18.511719 0-33.515625-15.003906-33.515625-33.511719zm0 0" fill="#b3b3b3" data-original="#B3B3B3" class=""/><path d="m325.640625 108.410156h-188.570313c0-59.871094 48.535157-108.40624975 108.40625-108.40624975h188.574219c0 59.86718775-48.535156 108.40624975-108.410156 108.40624975zm0 0" fill="#ccc" data-original="#CCC" class=""/><path d="m296.320312 0h-50.839843c-59.875 0-108.410157 48.535156-108.410157 108.410156h50.84375c0-59.875 48.535157-108.410156 108.40625-108.410156zm0 0" fill="#b3b3b3" data-original="#B3B3B3" class=""/><g fill="#ccc"><path d="m276.886719 147.894531h50.675781v20.898438h-50.675781zm0 0" data-original="#CCC" class=""/><path d="m255.988281 214.769531h-20.898437v-45.976562h-50.675782v-20.898438h71.574219zm0 0" data-original="#CCC" class=""/><path d="m218.371094 241.414062h75.234375v15.671876h-75.234375zm0 0" data-original="#CCC" class=""/><path d="m236.144531 271.191406h39.6875v10.449219h-39.6875zm0 0" data-original="#CCC" class=""/></g><path d="m235.667969 365.609375-68.960938 43.875 19.183594 92.785156c-.585937-.15625-1.160156-.324219-1.734375-.488281-3.78125-1.109375-7.523438-2.289062-11.234375-3.566406-6.207031-2.128906-12.308594-4.492188-18.285156-7.0625-9.296875-4.023438-18.316407-8.578125-27.007813-13.636719l-24.546875-80.519531 152.910157-72.066406 18.515624 8.726562zm0 0" fill="#e6e6e6" data-original="#E6E6E6" class=""/></g> </svg>
