<?xml version="1.0" encoding="iso-8859-1"?>
<!-- Generator: Adobe Illustrator 19.0.0, SVG Export Plug-In . SVG Version: 6.00 Build 0)  -->
<svg version="1.1" id="Capa_1" xmlns="http://www.w3.org/2000/svg" xmlns:xlink="http://www.w3.org/1999/xlink" x="0px" y="0px"
	 viewBox="0 0 512 512" style="enable-background:new 0 0 512 512;" xml:space="preserve">
<circle style="fill:#F1333F;" cx="256" cy="256" r="256"/>
<path style="fill:#AE283F;" d="M512,256c0-38.483-8.507-74.974-23.719-107.719l-91.615-91.615l-5.993,80.674L310,56.667
	l-70.929,90.5l88.115,88.115l-2.518,2.385L369.5,282.5l-4.564,0.091L258.185,175.839l-37.828,40.017L164.5,160l-72,181
	l44.115,44.115l7.718,101.302l0,0C178.081,502.803,215.965,512,256,512C397.385,512,512,397.385,512,256z"/>
<rect x="147.17" y="183" style="fill:#C0C0C0;" width="42" height="53.33"/>
<rect x="147.17" y="209.67" style="fill:#758F9B;" width="42" height="26.667"/>
<path style="fill:#FFFFFF;" d="M221.833,259.333h-42.667V160h42.667c27.43,0,49.667,22.236,49.667,49.667l0,0
	C271.5,237.097,249.264,259.333,221.833,259.333z"/>
<path style="fill:#E0E0E0;" d="M179.167,259.333h42.667c27.43,0,49.667-22.237,49.667-49.667l0,0h-92.333L179.167,259.333
	L179.167,259.333z"/>
<path style="fill:#C0C0C0;" d="M112.667,468.14c10.067,6.815,20.647,12.928,31.667,18.278V328h-31.667V468.14z"/>
<rect x="92.5" y="160" style="fill:#FFFFFF;" width="72" height="181"/>
<rect x="92.5" y="209.67" style="fill:#E0E0E0;" width="72" height="131.33"/>
<rect x="300" y="79.67" style="fill:#C0C0C0;" width="42" height="53.33"/>
<rect x="300" y="105.67" style="fill:#758F9B;" width="42" height="27.333"/>
<path style="fill:#FFFFFF;" d="M267.333,156H310V56.667h-42.667c-27.43,0-49.667,22.237-49.667,49.667l0,0
	C217.667,133.763,239.903,156,267.333,156z"/>
<path style="fill:#E0E0E0;" d="M217.684,105.667c-0.003,0.223-0.017,0.443-0.017,0.667l0,0c0,27.43,22.237,49.667,49.667,49.667H310
	v-50.333h-92.316V105.667z"/>
<path style="fill:#C0C0C0;" d="M344.833,496.157c10.928-4.043,21.5-8.816,31.667-14.25v-257.24h-31.667V496.157z"/>
<rect x="324.67" y="56.667" style="fill:#FFFFFF;" width="72" height="181"/>
<rect x="324.67" y="105.67" style="fill:#E0E0E0;" width="72" height="132"/>
<g>
</g>
<g>
</g>
<g>
</g>
<g>
</g>
<g>
</g>
<g>
</g>
<g>
</g>
<g>
</g>
<g>
</g>
<g>
</g>
<g>
</g>
<g>
</g>
<g>
</g>
<g>
</g>
<g>
</g>
</svg>
