<?xml version="1.0"?>
<svg xmlns="http://www.w3.org/2000/svg" height="512px" viewBox="0 0 512 512" width="512px" class=""><g><path d="m256 0c-140.699219 0-256 115.300781-256 256s115.300781 256 256 256 256-115.300781 256-256-115.300781-256-256-256zm0 0" fill="#80d398" data-original="#80D398" class="" style="fill:#5F7D95" data-old_color="#80d398"/><path d="m512 256c0 140.699219-115.300781 256-256 256v-512c140.699219 0 256 115.300781 256 256zm0 0" fill="#5bc980" data-original="#5BC980" class="active-path" style="fill:#374957" data-old_color="#5bc980"/><path d="m256 61c-107.402344 0-195 87.597656-195 195 0 107.398438 87.597656 195 195 195s196-87.601562 196-195c0-107.402344-88.597656-195-196-195zm0 0" fill="#68544f" data-original="#68544F" class="" style="fill:#FB5252" data-old_color="#68544f"/><path d="m452 256c0 107.398438-88.597656 195-196 195v-390c107.402344 0 196 87.597656 196 195zm0 0" fill="#53433f" data-original="#53433F" class="" style="fill:#C12020" data-old_color="#53433f"/><path d="m353.800781 243.101562-97.800781-58.800781-52.199219-31.199219c-4.800781-2.703124-10.5-2.703124-15.300781-.300781-4.5 2.699219-7.5 7.800781-7.5 13.199219v180c0 5.398438 3 10.5 7.5 13.199219 4.800781 2.398437 10.5 2.398437 15.300781-.300781l52.199219-31.199219 97.800781-58.800781c4.5-2.699219 7.199219-7.5 7.199219-12.898438 0-5.402344-2.699219-10.199219-7.199219-12.898438zm0 0" fill="#deecf1" data-original="#DEECF1" class=""/><path d="m361 256c0 5.398438-2.699219 10.199219-7.199219 12.898438l-97.800781 58.800781v-143.398438l97.800781 58.800781c4.5 2.699219 7.199219 7.5 7.199219 12.898438zm0 0" fill="#c6e2e7" data-original="#C6E2E7" class=""/></g> </svg>
