<?xml version="1.0"?>
<svg xmlns="http://www.w3.org/2000/svg" height="512px" viewBox="0 0 512 512" width="512px" class=""><g><path d="m512 256c0 141.386719-114.613281 256-256 256s-256-114.613281-256-256 114.613281-256 256-256 256 114.613281 256 256zm0 0" fill="#16c6cc" data-original="#16C6CC" class="" style="fill:#47A9C2" data-old_color="#16c6cc"/><path d="m271.558594 332.285156h-33.339844v-70.828125c0-21.304687 17.332031-38.636719 38.636719-38.636719h190.5625c2.921875 0 5.296875-2.375 5.296875-5.296874v-89.203126c0-2.921874-2.375-5.296874-5.296875-5.296874h-212.53125v-33.339844h212.53125c21.304687 0 38.636719 17.332031 38.636719 38.636718v89.203126c0 21.304687-17.332032 38.636718-38.636719 38.636718h-190.5625c-2.921875 0-5.296875 2.375-5.296875 5.296875zm0 0" fill="#465365" data-original="#465365" class="active-path" style="fill:#255662" data-old_color="#465365"/><path d="m428.816406 189.703125h-386.753906c-12.585938 0-22.785156-10.199219-22.785156-22.78125v-121.140625c0-12.582031 10.199218-22.78125 22.785156-22.78125h386.753906c12.582032 0 22.78125 10.199219 22.78125 22.78125v121.140625c0 12.582031-10.199218 22.78125-22.78125 22.78125zm0 0" fill="#f2f2f2" data-original="#F2F2F2" class=""/><path d="m69.277344 166.921875v-121.140625c0-12.582031 10.199218-22.78125 22.785156-22.78125h-50c-12.585938 0-22.785156 10.199219-22.785156 22.78125v121.140625c0 12.582031 10.199218 22.78125 22.785156 22.78125h50c-12.585938 0-22.785156-10.199219-22.785156-22.78125zm0 0" fill="#d9d8d7" data-original="#D9D8D7" class="" style="fill:#D9D8D7"/><path d="m299.34375 332.285156h-88.910156v176.1875c14.601562 2.3125 29.570312 3.527344 44.824218 3.527344 14.996094 0 29.714844-1.167969 44.085938-3.402344zm0 0" fill="#465365" data-original="#465365" class="active-path" style="fill:#255662" data-old_color="#465365"/><path d="m260.433594 332.285156h-50v176.1875c14.601562 2.3125 29.570312 3.527344 44.824218 3.527344 1.730469 0 3.453126-.019531 5.175782-.050781zm0 0" fill="#3e4959" data-original="#3E4959" class=""/><path d="m301.558594 358.40625h-93.34375c-4.914063 0-8.898438-3.980469-8.898438-8.894531v-34.453125c0-4.914063 3.984375-8.898438 8.898438-8.898438h93.34375c4.914062 0 8.894531 3.984375 8.894531 8.898438v34.453125c0 4.914062-3.980469 8.894531-8.894531 8.894531zm0 0" fill="#ffd55c" data-original="#FFD55C" class=""/><path d="m249.320312 349.511719v-34.453125c0-4.914063 3.980469-8.898438 8.894532-8.898438h-50c-4.914063 0-8.894532 3.984375-8.894532 8.898438v34.453125c0 4.914062 3.980469 8.894531 8.894532 8.894531h50c-4.914063 0-8.894532-3.980469-8.894532-8.894531zm0 0" fill="#ffc640" data-original="#FFC640" class="" style="fill:#FFC640"/></g> </svg>
