<?xml version="1.0"?>
<svg xmlns="http://www.w3.org/2000/svg" xmlns:xlink="http://www.w3.org/1999/xlink" version="1.1" id="Capa_1" x="0px" y="0px" viewBox="0 0 512.003 512.003" style="enable-background:new 0 0 512.003 512.003;" xml:space="preserve" width="512px" height="512px" class=""><g><circle style="fill:#47A9C2" cx="256.002" cy="257.415" r="254.588" data-original="#F48944" class="" data-old_color="#F48944"/><polygon style="fill:#E1F9FF" points="506.865,121.6 378.52,454.88 364.934,490.159 349.615,484.263 146.093,117.042 191.164,0 " data-original="#E8D4BB" class="" data-old_color="#E8D4BB"/><polygon style="fill:#6CBFD4" points="463.797,140.149 378.52,361.557 366.31,393.262 349.615,386.838 349.615,117.042   182.024,117.042 210.67,42.65 " data-original="#13BFBE" class="" data-old_color="#13BFBE"/><polygon style="fill:#325962" points="404.943,292.952 238.482,209.652 349.615,386.838 366.31,393.262 " data-original="#4A5370" class="" data-old_color="#4A5370"/><path style="fill:#E6F4F8" d="M11.297,117.045v210.841c7.43,25.854,18.84,50.014,33.533,71.773V149.83h271.246v271.256H60.999  C107.698,476.669,177.726,512,256.004,512h93.616V117.045C349.619,117.045,11.297,117.045,11.297,117.045z" data-original="#F9E7CD" class="" data-old_color="#F9E7CD"/><path style="fill:#9FDBEA" d="M316.076,421.086H60.999c-5.757-6.837-11.15-13.997-16.169-21.427V149.83h271.246V421.086z" data-original="#27D1CF" class="" data-old_color="#27D1CF"/><circle style="fill:#FFC772" cx="227.467" cy="263.442" r="64.421" data-original="#FFC772" class="active-path" data-old_color="#FFC772"/><path style="fill:#FCF2E8" d="M195.64,301.214L195.64,301.214c0-6.975-5.654-12.628-12.628-12.628H76.597  c-6.975,0-12.628,5.654-12.628,12.628l0,0c0,6.975,5.654,12.628,12.628,12.628h34.421c6.975,0,12.628,5.654,12.628,12.628l0,0  c0,6.975-5.654,12.628-12.628,12.628h-3.509c-6.975,0-12.628,5.654-12.628,12.628l0,0c0,6.975,5.654,12.628,12.628,12.628H209.5  c6.975,0,12.628-5.654,12.628-12.628l0,0c0-6.975,5.654-12.628,12.628-12.628h3.509c6.975,0,12.628-5.654,12.628-12.628l0,0  c0-6.975-5.654-12.628-12.628-12.628h-29.997C201.294,313.842,195.64,308.188,195.64,301.214z" data-original="#FCF2E8" class="" data-old_color="#FCF2E8"/></g> </svg>
